<mxfile host="app.diagrams.net" modified="2024-04-11T06:12:37.673Z" agent="Mozilla/5.0 (Windows NT 10.0; Win64; x64) AppleWebKit/537.36 (KHTML, like Gecko) Chrome/123.0.0.0 Safari/537.36" version="24.2.3" etag="Rut6qIVnSFO91natA1By" type="github">
  <diagram name="Page-1" id="BSWN9Dhe940mSDnomw_C">
    <mxGraphModel>
      <root>
        <mxCell id="0" />
        <mxCell id="1" parent="0" />
      </root>
    </mxGraphModel>
  </diagram>
</mxfile>
